# xmcd
#
# Track frame offsets:
#	150
#	16627
#	28302
#	39520
#	50022
#	60377
#	70532
#	82977
#	94587
#	105742
#	115150
#	125640
#	137802
#	148080
#	160410
#	170157
#	182027
#	192420
#	204022
#	217230
#
# Disc length: 3025 seconds
#
# Revision: 2
# Processed by: cddbd v1.5.2PL0 Copyright (c) Steve Scherf et al.
# Submitted via: EasyCDDAExtractor 9.1.1.2
#
DISCID=200bcf14
DTITLE=Various Artist - OLDIES HIT PARADE VOL:1
DYEAR=1900
DGENRE=Blues
TTITLE0=Righteous Brothers - Unchained Melody
TTITLE1=Johnny Cymbal - Mr. Bass Man
TTITLE2=The Beach Boys - Surfin' U.S.A.
TTITLE3=Little Eva - Loco-Motion
TTITLE4=Adriano Celentano - 24000 Baci
TTITLE5=Johnny Tillotson - Cutie Pie
TTITLE6=Neil Sedaka - Little Devil
TTITLE7=Paul Anka - Kissin' on the Phone
TTITLE8=The Drifters - Save the Last Dance For Me
TTITLE9=Elvis Presley - Don't Be Cruel
TTITLE10=Neil Sedaka - Oh! Carol
TTITLE11=The Platters - Smoke Gets In Your Eyes
TTITLE12=Connie Francis - Stupid Cupid
TTITLE13=Pat Boone - April Love
TTITLE14=The Diamonds - Little Darlin'
TTITLE15=Chubby Checker - The Twist
TTITLE16=Elvis Presley - Hound Dog
TTITLE17=Johnny Tillotson - Poetry in Motion
TTITLE18=The Crests - 16 Candles
TTITLE19=Ritchie Valens - La Bamba
EXTD=
EXTT0=
EXTT1=
EXTT2=
EXTT3=
EXTT4=
EXTT5=kkkk
EXTT6=
EXTT7=
EXTT8=
EXTT9=
EXTT10=
EXTT11=
EXTT12=
EXTT13=
EXTT14=
EXTT15=
EXTT16=
EXTT17=
EXTT18=
EXTT19=
PLAYORDER=
